<svg width="25" height="25" viewBox="0 0 25 25" fill="none" xmlns="http://www.w3.org/2000/svg">
<path d="M11.3955 11.395C10.7852 12.0054 10.7852 12.9946 11.3955 13.6045C12.0054 14.2148 12.9951 14.2148 13.605 13.6045C14.2153 12.9941 14.2153 12.0049 13.605 11.395C12.9946 10.7852 12.0054 10.7852 11.3955 11.395ZM12.5 0.390625C5.81201 0.390625 0.390625 5.81201 0.390625 12.5C0.390625 19.188 5.81201 24.6094 12.5 24.6094C19.188 24.6094 24.6094 19.188 24.6094 12.5C24.6094 5.81201 19.188 0.390625 12.5 0.390625ZM18.6592 7.61963L15.438 14.668C15.2822 15.0088 15.0088 15.2822 14.668 15.438L7.62012 18.6592C6.80713 19.0308 5.96924 18.1929 6.34082 17.3799L9.5625 10.3315C9.71831 9.99068 9.99166 9.71733 10.3325 9.56152L17.3804 6.34033C18.1934 5.96924 19.0308 6.80664 18.6592 7.61963Z" fill="#3DB390"/>
</svg>
