<svg width="24" height="20" viewBox="0 0 24 20" fill="none" xmlns="http://www.w3.org/2000/svg">
<path d="M11.5688 5.07374C11.835 4.83749 11.94 4.46624 11.8013 4.13624C11.715 3.93749 11.6213 3.74249 11.5163 3.55499L11.4 3.35249C11.2875 3.16499 11.1638 2.98124 11.0325 2.80499C10.8188 2.51999 10.4438 2.42624 10.1063 2.53874L9.04876 2.88749C8.64751 2.55749 8.18626 2.28749 7.69126 2.10374L7.46251 1.01624C7.39126 0.667488 7.12126 0.389988 6.76876 0.348738C6.52126 0.314988 6.27001 0.299988 6.01501 0.299988H5.98876C5.73376 0.299988 5.48251 0.314988 5.23501 0.344988C4.88251 0.386238 4.61251 0.667488 4.54126 1.01249L4.31251 2.10374C3.81376 2.29124 3.35626 2.55749 2.95501 2.88749L1.89376 2.54249C1.55626 2.42999 1.18126 2.52374 0.967506 2.80874C0.836256 2.98499 0.712506 3.16874 0.596256 3.35624L0.483756 3.55499C0.378756 3.74249 0.285006 3.93749 0.198756 4.13999C0.0600065 4.46624 0.165006 4.83749 0.431256 5.07749L1.26376 5.81999C1.22251 6.07124 1.20001 6.33374 1.20001 6.59999C1.20001 6.86624 1.22251 7.12874 1.26376 7.38374L0.431256 8.12624C0.165006 8.36249 0.0600065 8.73374 0.198756 9.06374C0.285006 9.26249 0.378756 9.45749 0.483756 9.64874L0.596256 9.84374C0.708756 10.035 0.832506 10.215 0.967506 10.3912C1.18126 10.6762 1.55626 10.77 1.89376 10.6575L2.95126 10.3087C3.35251 10.6387 3.81376 10.9087 4.30876 11.0925L4.53751 12.1837C4.60876 12.5325 4.87876 12.81 5.23126 12.8512C5.48251 12.8812 5.73751 12.8962 5.99626 12.8962C6.25501 12.8962 6.51001 12.8812 6.76126 12.8512C7.11376 12.81 7.38376 12.5287 7.45501 12.1837L7.68376 11.0925C8.18251 10.905 8.64001 10.6387 9.04126 10.3087L10.0988 10.6575C10.4363 10.77 10.8113 10.6762 11.025 10.3912C11.1563 10.215 11.28 10.035 11.3925 9.84374L11.5088 9.64124C11.6138 9.45374 11.7075 9.25874 11.7938 9.05999C11.9325 8.73374 11.8275 8.36249 11.5613 8.12249L10.7288 7.37999C10.77 7.12499 10.7925 6.86249 10.7925 6.59624C10.7925 6.32999 10.77 6.06749 10.7288 5.81249L11.5613 5.06999L11.5688 5.07374ZM4.20001 6.59999C4.20001 6.1226 4.38965 5.66476 4.72721 5.3272C5.06478 4.98963 5.52262 4.79999 6.00001 4.79999C6.4774 4.79999 6.93523 4.98963 7.2728 5.3272C7.61036 5.66476 7.80001 6.1226 7.80001 6.59999C7.80001 7.07738 7.61036 7.53521 7.2728 7.87278C6.93523 8.21035 6.4774 8.39999 6.00001 8.39999C5.52262 8.39999 5.06478 8.21035 4.72721 7.87278C4.38965 7.53521 4.20001 7.07738 4.20001 6.59999ZM18.9263 18.7687C19.1625 19.035 19.5338 19.14 19.8638 19.0012C20.0625 18.915 20.2575 18.8212 20.445 18.7162L20.6475 18.6C20.835 18.4875 21.0188 18.3637 21.195 18.2325C21.48 18.0187 21.5738 17.6437 21.4613 17.3062L21.1125 16.2487C21.4425 15.8475 21.7125 15.3862 21.8963 14.8912L22.9875 14.6625C23.3363 14.5912 23.6138 14.3212 23.655 13.9687C23.685 13.7175 23.7 13.4625 23.7 13.2037C23.7 12.945 23.685 12.69 23.655 12.4387C23.6138 12.0862 23.3325 11.8162 22.9875 11.745L21.8963 11.5125C21.7088 11.0137 21.4425 10.5562 21.1125 10.155L21.4613 9.09749C21.5738 8.75999 21.48 8.38499 21.195 8.17124C21.0188 8.03999 20.835 7.91624 20.6475 7.79999L20.4488 7.68749C20.2613 7.58249 20.0663 7.48874 19.8638 7.40249C19.5375 7.26374 19.1663 7.36874 18.9263 7.63499L18.1838 8.46749C17.9288 8.42624 17.6663 8.40374 17.4 8.40374C17.1338 8.40374 16.8713 8.42624 16.6163 8.46749L15.8738 7.63499C15.6375 7.36874 15.2663 7.26374 14.9363 7.40249C14.7375 7.48874 14.5425 7.58249 14.3513 7.68749L14.1563 7.79999C13.965 7.91249 13.785 8.03624 13.6088 8.17124C13.3238 8.38499 13.23 8.75999 13.3425 9.09749L13.6913 10.155C13.3613 10.5562 13.0913 11.0175 12.9075 11.5125L11.8163 11.7375C11.4675 11.8087 11.19 12.0787 11.1488 12.4312C11.1188 12.6825 11.1038 12.9375 11.1038 13.1962C11.1038 13.455 11.1188 13.71 11.1488 13.9612C11.19 14.3137 11.4713 14.5837 11.8163 14.655L12.9075 14.8837C13.095 15.3825 13.3613 15.84 13.6913 16.2412L13.3425 17.2987C13.23 17.6362 13.3238 18.0112 13.6088 18.225C13.785 18.3562 13.965 18.48 14.1563 18.5925L14.3588 18.7087C14.5463 18.8137 14.7413 18.9075 14.94 18.9937C15.2663 19.1325 15.6375 19.0275 15.8775 18.7612L16.62 17.9287C16.875 17.97 17.1375 17.9925 17.4038 17.9925C17.67 17.9925 17.9325 17.97 18.1875 17.9287L18.93 18.7612L18.9263 18.7687ZM17.4 11.4C17.6364 11.4 17.8704 11.4465 18.0888 11.537C18.3072 11.6275 18.5057 11.7601 18.6728 11.9272C18.8399 12.0943 18.9725 12.2928 19.063 12.5112C19.1534 12.7295 19.2 12.9636 19.2 13.2C19.2 13.4364 19.1534 13.6704 19.063 13.8888C18.9725 14.1072 18.8399 14.3056 18.6728 14.4728C18.5057 14.6399 18.3072 14.7725 18.0888 14.863C17.8704 14.9534 17.6364 15 17.4 15C17.1636 15 16.9296 14.9534 16.7112 14.863C16.4928 14.7725 16.2944 14.6399 16.1272 14.4728C15.9601 14.3056 15.8275 14.1072 15.737 13.8888C15.6466 13.6704 15.6 13.4364 15.6 13.2C15.6 12.9636 15.6466 12.7295 15.737 12.5112C15.8275 12.2928 15.9601 12.0943 16.1272 11.9272C16.2944 11.7601 16.4928 11.6275 16.7112 11.537C16.9296 11.4465 17.1636 11.4 17.4 11.4Z" fill="black"/>
</svg>
