<svg width="20" height="20" viewBox="0 0 20 20" fill="none" xmlns="http://www.w3.org/2000/svg">
<path d="M19.457 0.218747C19.8515 0.492184 20.0586 0.96484 19.9844 1.4375L17.4844 17.6875C17.4258 18.0664 17.1953 18.3984 16.8594 18.5859C16.5234 18.7734 16.1211 18.7969 15.7656 18.6484L11.0937 16.707L8.41795 19.6016C8.07029 19.9805 7.52342 20.1055 7.04295 19.918C6.56248 19.7305 6.24998 19.2656 6.24998 18.75V15.4844C6.24998 15.3281 6.30857 15.1797 6.41404 15.0664L12.9609 7.92187C13.1875 7.67578 13.1797 7.29687 12.9453 7.0625C12.7109 6.82812 12.332 6.8125 12.0859 7.03515L4.1406 14.0937L0.691386 12.3672C0.277323 12.1602 0.0116984 11.7461 -2.03888e-05 11.2852C-0.0117391 10.8242 0.230448 10.3945 0.628886 10.1641L18.1289 0.164059C18.5469 -0.074222 19.0625 -0.0507845 19.457 0.218747Z" fill="#3DB390"/>
</svg>
